<svg width="88" height="27" viewBox="0 0 88 27" fill="none" xmlns="http://www.w3.org/2000/svg">
<path d="M10.2221 0C12.9334 0 15.3026 0.56882 17.33 1.70646C19.3817 2.81882 20.9572 4.38624 22.0563 6.40871C23.1555 8.43118 23.705 10.7444 23.705 13.3483C23.705 15.927 23.1433 18.2275 22.0197 20.25C20.9205 22.2725 19.3451 23.8652 17.2933 25.0281C15.266 26.1657 12.9089 26.7345 10.2221 26.7345H0V0H10.2221ZM9.67254 20.1742C11.7731 20.1742 13.4219 19.5801 14.6187 18.3919C15.8156 17.2036 16.414 15.5225 16.414 13.3483C16.414 11.1489 15.8156 9.45505 14.6187 8.26685C13.4219 7.05337 11.7731 6.44663 9.67254 6.44663H7.18113V20.1742H9.67254Z" fill="#3903C3"/>
<path d="M34.1232 0V26.7345H26.9421V0H34.1232Z" fill="#3903C3"/>
<path d="M54.5534 22.3736H45.3938L44.0016 26.7345H36.4541L45.8701 0H54.1504L63.5298 26.7345H55.9457L54.5534 22.3736ZM52.7581 16.6854L49.9736 8.03933L47.2257 16.6854H52.7581Z" fill="#3903C3"/>
<path d="M72.905 0V15.5098C72.905 16.9508 73.2225 18.0632 73.8576 18.8469C74.5171 19.6306 75.5063 20.0225 76.8253 20.0225C78.1443 20.0225 79.1335 19.6306 79.793 18.8469C80.4769 18.0379 80.8189 16.9256 80.8189 15.5098V0H88V15.5098C88 17.9621 87.4993 20.0604 86.4978 21.8048C85.4964 23.5239 84.1285 24.8258 82.3943 25.7107C80.6845 26.5702 78.7793 27 76.6787 27C74.5781 27 72.6974 26.5702 71.0364 25.7107C69.3999 24.8258 68.1053 23.5239 67.1527 21.8048C66.2246 20.0857 65.7605 17.9874 65.7605 15.5098V0H72.905Z" fill="#3903C3"/>
</svg>
