<svg width="16" height="17" viewBox="0 0 16 17" fill="none" xmlns="http://www.w3.org/2000/svg">
<path d="M1.41334 9.51733C1.90801 12.7047 4.68134 15.164 8.00068 15.164C11.6667 15.164 14.666 12.1647 14.666 8.49866C14.666 4.83266 11.6673 1.83333 8.00134 1.83333C5.80268 1.83333 3.86801 2.90066 2.66668 4.49999V1.83399L1.33534 1.83333L1.33334 6.5H6.00001V5.16666L3.86734 5.166C4.80001 3.96733 6.33468 3.16666 8.00134 3.16666C10.9333 3.16666 13.3333 5.56666 13.3333 8.49866C13.3333 11.4307 10.9333 13.8313 8.00068 13.8313C5.41534 13.8313 3.24601 11.9687 2.76801 9.51733H1.41334Z" fill="#EEEEEE"/>
<path d="M7.33466 5.166V8.70067L9.46866 11.5653L10.5353 10.7673L8.66799 8.3V5.166H7.33466Z" fill="#EEEEEE"/>
</svg>
