<svg width="70" height="34" viewBox="0 0 70 34" fill="none" xmlns="http://www.w3.org/2000/svg">
<path fill-rule="evenodd" clip-rule="evenodd" d="M38.245 0.900024C37.8767 0.900387 37.5236 1.04734 37.2625 1.30882C37.0015 1.57031 36.8538 1.92511 36.8516 2.29583V5.55852C36.8516 6.13672 37.3133 6.60503 37.8925 6.60503H68.4904C69.0654 6.60503 69.5313 6.13812 69.5313 5.55852V1.94653C69.5313 1.36833 69.0696 0.900024 68.4904 0.900024H38.245ZM37.8925 9.30002C37.3174 9.30002 36.8516 9.76693 36.8516 10.3465V13.9585C36.8516 14.5367 37.3133 15.005 37.8925 15.005H68.4904C69.0654 15.005 69.5313 14.5381 69.5313 13.9585V10.3465C69.5313 9.76833 69.0696 9.30002 68.4904 9.30002H37.8925ZM37.8925 18.4C37.3174 18.4 36.8516 18.8669 36.8516 19.4465V23.0585C36.8516 23.6367 37.3133 24.105 37.8925 24.105H68.4904C69.0654 24.105 69.5313 23.6381 69.5313 23.0585V19.4465C69.5313 18.8683 69.0696 18.4 68.4904 18.4H37.8925ZM37.8925 27.5C37.3174 27.5 36.8516 27.9669 36.8516 28.5465V32.1585C36.8516 32.7367 37.3133 33.205 37.8925 33.205H68.4904C69.0654 33.205 69.5313 32.7381 69.5313 32.1585V28.5465C69.5313 27.9683 69.0696 27.5 68.4904 27.5H37.8925ZM28.5078 32.7521C28.5078 33.331 28.9716 33.8 29.5473 33.8H33.1351C33.7094 33.8 34.1746 33.3352 34.1746 32.7521V1.94793C34.1746 1.36903 33.7108 0.900024 33.1351 0.900024H29.5473C28.973 0.900024 28.5078 1.36483 28.5078 1.94793V32.7521ZM9.73438 32.7521C9.73438 33.331 10.1982 33.8 10.7739 33.8H14.3617C14.936 33.8 15.4012 33.3352 15.4012 32.7521V1.94793C15.4012 1.36903 14.9374 0.900024 14.3617 0.900024H10.7739C10.1995 0.900024 9.73438 1.36483 9.73438 1.94793V32.7521ZM5.6668 32.7521C5.6668 33.331 5.20303 33.8 4.62731 33.8H1.0395C0.902796 33.8003 0.767386 33.7734 0.641054 33.7208C0.514722 33.6682 0.399958 33.591 0.303359 33.4936C0.20676 33.3963 0.130231 33.2806 0.0781709 33.1534C0.0261111 33.0261 -0.000452564 32.8898 5.83306e-06 32.7521V1.94793C5.83306e-06 1.36903 0.46378 0.900024 1.0395 0.900024H4.62731C5.20164 0.900024 5.6668 1.36483 5.6668 1.94793V32.7521ZM18.7734 32.7521C18.7734 33.331 19.2372 33.8 19.8129 33.8H23.4007C23.9751 33.8 24.4402 33.3352 24.4402 32.7521V1.94793C24.4402 1.36903 23.9765 0.900024 23.4007 0.900024H19.8129C19.2386 0.900024 18.7734 1.36483 18.7734 1.94793V32.7521Z" fill="#3903C3"/>
</svg>
