<svg width="64" height="60" viewBox="0 0 64 60" fill="none" xmlns="http://www.w3.org/2000/svg">
<path d="M62.5165 0L35.0547 20.32L40.1615 8.34475L62.5165 0Z" fill="#E17726"/>
<path d="M1.54749 0.0240021L23.843 8.34625L28.692 20.4783L1.54749 0.0240021Z" fill="#E27625"/>
<path d="M51.465 43.2145L63.6025 43.4455L59.3607 57.856L44.55 53.7783L51.465 43.2145Z" fill="#E27625"/>
<path d="M12.535 43.2145L19.424 53.7783L4.63825 57.8563L0.421997 43.4455L12.535 43.2145Z" fill="#E27625"/>
<path d="M28.0325 17.388L28.5288 33.4087L13.6863 32.7335L17.908 26.364L17.9615 26.3027L28.0325 17.388Z" fill="#E27625"/>
<path d="M35.8135 17.2092L46.0385 26.3032L46.0915 26.3642L50.3135 32.7337L35.474 33.4087L35.8135 17.2092Z" fill="#E27625"/>
<path d="M19.8588 43.261L27.9633 49.5757L18.5488 54.121L19.8588 43.261Z" fill="#E27625"/>
<path d="M44.1425 43.26L45.4255 54.1212L36.0372 49.5752L44.1425 43.26Z" fill="#E27625"/>
<path d="M36.2445 48.9805L45.7713 53.5935L36.9095 57.805L37.0015 55.0215L36.2445 48.9805Z" fill="#D5BFB2"/>
<path d="M27.7528 48.9825L27.0255 54.976L27.0853 57.8018L18.2028 53.5935L27.7528 48.9825Z" fill="#D5BFB2"/>
<path d="M25.0018 35.4998L27.4913 40.7318L19.0155 38.2488L25.0018 35.4998Z" fill="#233447"/>
<path d="M38.998 35.5L45.0125 38.2487L36.509 40.731L38.998 35.5Z" fill="#233447"/>
<path d="M20.5065 43.2075L19.1365 54.4675L11.7933 43.4538L20.5065 43.2075Z" fill="#CC6228"/>
<path d="M43.494 43.2075L52.2075 43.4538L44.8368 54.468L43.494 43.2075Z" fill="#CC6228"/>
<path d="M50.528 32.0967L44.1867 38.5595L39.2975 36.3252L36.9567 41.2462L35.4222 32.784L50.528 32.0967Z" fill="#CC6228"/>
<path d="M13.4688 32.0967L28.5775 32.7842L27.0427 41.2462L24.7015 36.326L19.8382 38.5597L13.4688 32.0967Z" fill="#CC6228"/>
<path d="M13.0415 30.7705L20.216 38.0508L20.4645 45.2382L13.0415 30.7705Z" fill="#E27525"/>
<path d="M50.9657 30.7575L43.5292 45.2508L43.8092 38.0508L50.9657 30.7575Z" fill="#E27525"/>
<path d="M28.2268 31.214L28.5155 33.0315L29.229 37.559L28.7703 51.4655L26.6015 40.2943L26.6008 40.1788L28.2268 31.214Z" fill="#E27525"/>
<path d="M35.7695 31.1888L37.3997 40.1788L37.399 40.2943L35.2248 51.4935L35.1387 48.6923L34.7995 37.4768L35.7695 31.1888Z" fill="#E27525"/>
<path d="M44.447 37.7615L44.2045 44.006L36.6358 49.9028L35.1058 48.8218L36.8208 39.988L44.447 37.7615Z" fill="#F5841F"/>
<path d="M19.5792 37.7615L27.1792 39.988L28.8942 48.8218L27.3642 49.9028L19.7952 44.0053L19.5792 37.7615Z" fill="#F5841F"/>
<path d="M16.7545 52.2145L26.4375 56.8025L26.3965 54.8433L27.2065 54.132H36.7903L37.6298 54.8408L37.5678 56.7985L47.1895 52.226L42.5075 56.095L36.8463 59.9833H27.129L21.4715 56.079L16.7545 52.2145Z" fill="#C0AC9D"/>
<path d="M35.551 48.37L36.92 49.337L37.7222 55.738L36.5612 54.7577H27.4422L26.3032 55.7577L27.0792 49.3375L28.4487 48.37H35.551Z" fill="#161616"/>
<path d="M60.7035 0.5625L64 10.4517L61.9413 20.451L63.4073 21.5818L61.4235 23.0952L62.9145 24.2467L60.9403 26.0445L62.1523 26.9223L58.9358 30.6787L45.7433 26.8375L45.629 26.7763L36.1223 18.7568L60.7035 0.5625Z" fill="#763E1A"/>
<path d="M3.2965 0.5625L27.878 18.7568L18.371 26.7763L18.2568 26.8375L5.06425 30.6787L1.8475 26.9223L3.0585 26.0452L1.0855 24.2467L2.5735 23.0968L0.56 21.5788L2.08125 20.4473L0 10.4522L3.2965 0.5625Z" fill="#763E1A"/>
<path d="M45.098 25.9975L59.0762 30.0675L63.6175 44.0637H51.6365L43.3815 44.1677L49.385 32.4657L45.098 25.9975Z" fill="#F5841F"/>
<path d="M18.902 25.9975L14.6143 32.4657L20.6185 44.1677L12.3673 44.0637H0.407776L4.92353 30.0675L18.902 25.9975Z" fill="#F5841F"/>
<path d="M40.846 8.27801L36.936 18.8378L36.1065 33.1027L35.789 37.574L35.764 48.996H28.236L28.2115 37.5955L27.893 33.099L27.063 18.8378L23.1537 8.27776L40.846 8.27801Z" fill="#F5841F"/>
</svg>
