<svg width="24" height="24" viewBox="0 0 24 24" fill="none" xmlns="http://www.w3.org/2000/svg">
<path d="M21.3333 9.99999H20.6666V5.99999C20.6666 5.82318 20.5964 5.65361 20.4714 5.52859C20.3464 5.40356 20.1768 5.33332 20 5.33332H3.99997C3.84211 5.3359 3.68846 5.28237 3.56638 5.18226C3.44429 5.08215 3.3617 4.94196 3.3333 4.78666V4.54666C3.3617 4.39135 3.44429 4.25116 3.56638 4.15106C3.68846 4.05095 3.84211 3.99741 3.99997 3.99999H19.72C19.8968 3.99999 20.0664 3.92975 20.1914 3.80473C20.3164 3.6797 20.3866 3.51013 20.3866 3.33332C20.3866 3.15651 20.3164 2.98694 20.1914 2.86192C20.0664 2.73689 19.8968 2.66666 19.72 2.66666H3.99997C3.46954 2.66666 2.96083 2.87737 2.58576 3.25244C2.21068 3.62752 1.99997 4.13622 1.99997 4.66666C1.99529 4.74659 1.99529 4.82673 1.99997 4.90666V18.62C2.00259 18.9789 2.07588 19.3339 2.21567 19.6645C2.35545 19.9951 2.55899 20.295 2.81467 20.5469C3.07034 20.7989 3.37314 20.998 3.70577 21.1329C4.0384 21.2679 4.39435 21.336 4.7533 21.3333H20C20.1768 21.3333 20.3464 21.2631 20.4714 21.1381C20.5964 21.013 20.6666 20.8435 20.6666 20.6667V16.6667H21.3333C21.5101 16.6667 21.6797 16.5964 21.8047 16.4714C21.9297 16.3464 22 16.1768 22 16V10.6667C22 10.4898 21.9297 10.3203 21.8047 10.1953C21.6797 10.0702 21.5101 9.99999 21.3333 9.99999ZM19.3333 20H4.7533C4.3825 20.0036 4.02529 19.8606 3.75936 19.6022C3.49344 19.3437 3.34032 18.9907 3.3333 18.62V6.58666C3.5497 6.64937 3.77488 6.67639 3.99997 6.66666H19.3333V9.99999H14.6666C13.7826 9.99999 12.9347 10.3512 12.3096 10.9763C11.6845 11.6014 11.3333 12.4493 11.3333 13.3333C11.3333 14.2174 11.6845 15.0652 12.3096 15.6903C12.9347 16.3155 13.7826 16.6667 14.6666 16.6667H19.3333V20ZM20.6666 15.3333H14.6666C14.1362 15.3333 13.6275 15.1226 13.2524 14.7475C12.8773 14.3725 12.6666 13.8638 12.6666 13.3333C12.6666 12.8029 12.8773 12.2942 13.2524 11.9191C13.6275 11.544 14.1362 11.3333 14.6666 11.3333H20.6666V15.3333Z" fill="white"/>
<path d="M15.34 14.3333C15.8923 14.3333 16.34 13.8856 16.34 13.3333C16.34 12.7811 15.8923 12.3333 15.34 12.3333C14.7877 12.3333 14.34 12.7811 14.34 13.3333C14.34 13.8856 14.7877 14.3333 15.34 14.3333Z" fill="white"/>
</svg>
